<svg xmlns="http://www.w3.org/2000/svg" width="64" height="64">
    <style type="text/css" ><![CDATA[
        .eye {
            stroke: none;
            fill: #FFFFFF;
        }
        .primary {
            stroke: none;
            fill: #A4C639;
        }
    ]]></style>
    <!-- left antenna -->
    <rect x="24" y="0" width="4" height="10" rx="2" ry="2"
        transform="rotate(-45 24 10)" class="primary" />
    <!-- right antenna -->
    <rect x="36" y="0" width="4" height="10" rx="2" ry="2"
        transform="rotate(45 40 10)" class="primary" />
    <!-- head -->
    <path d="M16,20a16,16 0 0,1 32,0z" class="primary" />
    <!-- left eye -->
    <rect x="24" y="12" width="4" height="4" class="eye" />
    <!-- right eye -->
    <rect x="36" y="12" width="4" height="4" class="eye" />
    <!-- trunk -->
    <path d="M16,22h32v24a4,4 0 0,1 -4,4h-24a4,4 0 0,1 -4,-4z"
        class="primary" />
    <!-- left arm -->
    <rect x="6" y="22" width="8" height="26" rx="4" ry="4"
        class="primary" />
    <!-- right arm -->
    <rect x="50" y="22" width="8" height="26" rx="4" ry="4"
        class="primary" />
    <!-- left leg -->
    <path d="M22,50v10a4,4 0, 0,0 8,0v-10z" class="primary" />
    <!-- right leg -->
    <path d="M34,50v10a4,4 0, 0,0 8,0v-10z" class="primary" />
</svg>
